<?xml version="1.0" encoding="UTF-8"?>
<svg xmlns="http://www.w3.org/2000/svg" xmlns:xlink="http://www.w3.org/1999/xlink" viewBox="0 0 48 48" width="48px" height="48px">
<g id="surface15211773">
<path style=" stroke:none;fill-rule:evenodd;fill:rgb(98.431373%,74.901962%,14.117648%);fill-opacity:1;" d="M 37.441406 38.398438 L 24 42.238281 L 10.558594 38.398438 L 7.679688 5.761719 L 40.320312 5.761719 C 39.359375 16.640625 38.398438 27.519531 37.441406 38.398438 Z M 38.222656 7.679688 L 9.777344 7.679688 L 12.355469 36.914062 L 24 40.246094 L 35.644531 36.914062 Z M 16.128906 26.878906 L 19.96875 26.878906 L 20.0625 29.28125 L 24 30.621094 L 27.9375 29.28125 L 28.222656 24.960938 L 19.777344 24.960938 L 19.582031 21.121094 L 28.417969 21.121094 L 28.703125 17.28125 L 15.457031 17.28125 L 15.167969 13.441406 L 32.738281 13.441406 L 32.257812 21.121094 L 31.582031 32.160156 L 24 34.65625 L 16.417969 32.160156 Z M 16.128906 26.878906 "/>
</g>
</svg>
