<?xml version="1.0" encoding="UTF-8"?>
<svg xmlns="http://www.w3.org/2000/svg" xmlns:xlink="http://www.w3.org/1999/xlink" viewBox="0 0 48 48" width="48px" height="48px">
<g id="surface15239730">
<path style=" stroke:none;fill-rule:nonzero;fill:rgb(98.431373%,74.901962%,14.117648%);fill-opacity:1;" d="M 5.070312 1.921875 C 4.574219 2.011719 4.234375 2.472656 4.289062 2.96875 L 7.679688 40.828125 C 7.726562 41.214844 8 41.535156 8.371094 41.640625 L 23.730469 46.050781 C 23.90625 46.101562 24.09375 46.101562 24.269531 46.050781 L 39.628906 41.640625 C 40 41.535156 40.273438 41.214844 40.320312 40.828125 L 43.710938 2.96875 C 43.734375 2.699219 43.644531 2.433594 43.460938 2.230469 C 43.277344 2.03125 43.019531 1.921875 42.75 1.921875 L 5.25 1.921875 C 5.21875 1.921875 5.191406 1.921875 5.160156 1.921875 C 5.128906 1.921875 5.101562 1.921875 5.070312 1.921875 Z M 6.300781 3.839844 L 41.699219 3.839844 L 38.488281 39.988281 L 24 44.101562 L 9.511719 39.988281 Z M 12.03125 9.660156 C 11.535156 9.75 11.195312 10.210938 11.25 10.710938 L 12.539062 24.898438 C 12.570312 25.394531 12.976562 25.785156 13.46875 25.800781 L 28.800781 25.800781 L 28.378906 30.210938 L 24.03125 31.140625 L 19.621094 30.210938 L 19.46875 28.648438 C 19.441406 28.144531 19.015625 27.75 18.511719 27.75 L 13.828125 27.75 C 13.558594 27.75 13.300781 27.863281 13.117188 28.0625 C 12.933594 28.265625 12.84375 28.53125 12.871094 28.800781 L 13.410156 34.679688 C 13.441406 35.066406 13.699219 35.398438 14.070312 35.519531 L 23.609375 38.429688 L 23.730469 38.460938 C 23.90625 38.511719 24.09375 38.511719 24.269531 38.460938 L 33.929688 35.519531 C 34.3125 35.410156 34.585938 35.078125 34.621094 34.679688 L 35.878906 20.25 C 35.90625 19.984375 35.820312 19.722656 35.644531 19.523438 C 35.46875 19.324219 35.214844 19.207031 34.949219 19.199219 L 18.601562 19.199219 L 18.359375 16.230469 L 35.371094 16.230469 C 35.867188 16.234375 36.285156 15.855469 36.328125 15.359375 L 36.75 10.710938 C 36.777344 10.441406 36.6875 10.171875 36.503906 9.972656 C 36.320312 9.773438 36.058594 9.660156 35.789062 9.660156 L 12.210938 9.660156 C 12.148438 9.652344 12.089844 9.652344 12.03125 9.660156 Z M 13.261719 11.578125 L 34.738281 11.578125 L 34.5 14.308594 L 17.308594 14.308594 C 17.039062 14.308594 16.78125 14.421875 16.597656 14.621094 C 16.414062 14.824219 16.324219 15.089844 16.351562 15.359375 L 16.800781 20.25 C 16.84375 20.734375 17.246094 21.109375 17.730469 21.121094 L 33.898438 21.121094 L 32.761719 33.871094 L 24 36.511719 L 15.238281 33.871094 L 14.878906 29.671875 L 17.640625 29.671875 L 17.761719 31.078125 C 17.789062 31.503906 18.09375 31.855469 18.511719 31.949219 L 23.851562 33.058594 C 23.976562 33.085938 24.113281 33.085938 24.238281 33.058594 L 29.488281 31.949219 C 29.90625 31.855469 30.210938 31.503906 30.238281 31.078125 L 30.808594 24.898438 C 30.824219 24.632812 30.730469 24.375 30.550781 24.183594 C 30.367188 23.988281 30.117188 23.878906 29.851562 23.878906 L 14.339844 23.878906 Z M 13.261719 11.578125 "/>
</g>
</svg>
