<?xml version="1.0" encoding="UTF-8"?>
<svg xmlns="http://www.w3.org/2000/svg" xmlns:xlink="http://www.w3.org/1999/xlink" viewBox="0 0 48 48" width="48px" height="48px">
<g id="surface15208266">
<path style=" stroke:none;fill-rule:nonzero;fill:rgb(98.431373%,74.901962%,14.117648%);fill-opacity:1;" d="M 6.402344 3.839844 C 5 3.839844 3.839844 5 3.839844 6.402344 L 3.839844 41.597656 C 3.839844 43 5 44.160156 6.402344 44.160156 L 41.597656 44.160156 C 43 44.160156 44.160156 43.003906 44.160156 41.597656 L 44.160156 6.402344 C 44.160156 5 43.003906 3.839844 41.597656 3.839844 Z M 6.402344 5.761719 L 41.597656 5.761719 C 41.953125 5.761719 42.238281 6.046875 42.238281 6.402344 L 42.238281 41.597656 C 42.238281 41.953125 41.953125 42.238281 41.597656 42.238281 L 6.402344 42.238281 C 6.046875 42.238281 5.761719 41.953125 5.761719 41.597656 L 5.761719 6.402344 C 5.761719 6.046875 6.046875 5.761719 6.402344 5.761719 Z M 22.078125 22.078125 L 22.078125 34.152344 C 22.078125 36.003906 21.378906 36.480469 20.160156 36.480469 C 18.886719 36.480469 18 35.683594 17.414062 34.652344 L 14.398438 36.480469 C 15.273438 38.328125 17.414062 40.320312 20.386719 40.320312 C 23.671875 40.320312 25.921875 38.574219 25.921875 34.734375 L 25.921875 22.078125 Z M 34.035156 22.078125 C 30.765625 22.078125 28.667969 24.171875 28.667969 26.921875 C 28.667969 29.902344 30.425781 31.3125 33.070312 32.4375 L 33.984375 32.832031 C 35.65625 33.5625 36.480469 34.007812 36.480469 35.265625 C 36.480469 36.3125 35.683594 37.070312 34.167969 37.070312 C 32.359375 37.070312 31.503906 35.84375 30.71875 34.558594 L 27.839844 36.480469 C 28.917969 38.605469 30.847656 40.320312 34.25 40.320312 C 37.730469 40.320312 40.320312 38.511719 40.320312 35.214844 C 40.320312 32.15625 38.566406 30.796875 35.449219 29.460938 L 34.535156 29.070312 C 32.960938 28.386719 32.28125 27.945312 32.28125 26.847656 C 32.28125 25.957031 32.960938 25.273438 34.035156 25.273438 C 35.089844 25.273438 35.765625 25.722656 36.390625 26.847656 L 39.242188 25.015625 C 38.039062 22.890625 36.363281 22.078125 34.035156 22.078125 Z M 34.035156 22.078125 "/>
</g>
</svg>
